<svg width="45" height="45" viewBox="0 0 67 75" fill="none" xmlns="http://www.w3.org/2000/svg">
<path d="M42.85 19.9V55H34.3V33.95L26.45 55H19.55L11.65 33.9V55H3.1V19.9H13.2L23.05 44.2L32.8 19.9H42.85Z" fill="white"/>
<path d="M55.45 55L43.65 39.5V55H35.1V19.9H43.65V35.3L55.35 19.9H65.4L51.8 37.1L65.9 55H55.45Z" fill="white"/>
<path d="M42.85 19.9V55H34.3V33.95L26.45 55H19.55L11.65 33.9V55H3.09998V19.9H13.2L23.05 44.2L32.8 19.9H42.85Z" fill="white"/>
<path d="M55.45 55L43.65 39.5V55H35.1V19.9H43.65V35.3L55.35 19.9H65.4L51.8 37.1L65.9 55H55.45Z" fill="white"/>
</svg>
